<svg xmlns="http://www.w3.org/2000/svg" xmlns:xlink="http://www.w3.org/1999/xlink" width="13" height="16" viewBox="0 0 13 16"><defs><path id="8h7za" d="M759.57 164.55v-6.42h7.7v6.42c0 .35-.3.64-.65.64h-.64v2.24a.96.96 0 1 1-1.92 0v-2.24h-1.29v2.24a.96.96 0 1 1-1.92 0v-2.24h-.64a.64.64 0 0 1-.64-.64zm-1.6-6.42c.52 0 .95.43.95.96v4.5a.96.96 0 1 1-1.92 0v-4.5c0-.53.43-.96.96-.96zm10.9 0c.53 0 .96.43.96.96v4.5a.96.96 0 1 1-1.92 0v-4.5c0-.53.43-.96.96-.96zm-3.19-3.74c.96.7 1.58 1.82 1.58 3.1h-7.7c0-1.28.63-2.4 1.58-3.1l-.84-.84a.32.32 0 0 1 0-.45.32.32 0 0 1 .45 0l.96.95a3.8 3.8 0 0 1 3.4 0l.95-.95a.32.32 0 0 1 .45 0c.13.12.13.32 0 .45zm-4.19 1.82h.64v-.64h-.64zm3.2 0h.65v-.64h-.64z"/></defs><g><g transform="translate(-757 -153)"><use fill="#364041" xlink:href="#8h7za"/></g></g></svg>