<svg xmlns="http://www.w3.org/2000/svg" xmlns:xlink="http://www.w3.org/1999/xlink" width="31" height="30" viewBox="0 0 31 30"><defs><path id="rg4ya" d="M51 42.27v2.18c0 .46-.58.82-1.3.82H21.3c-.72 0-1.3-.36-1.3-.82v-2.18c0-.45.58-.82 1.3-.82h28.4c.72 0 1.3.37 1.3.82zM20 53.18V51c0-.45.37-.82.83-.82h29.34c.46 0 .83.37.83.82v2.18c0 .45-.37.82-.83.82H20.83a.82.82 0 0 1-.83-.82zm0-17.45v-2.18c0-.46.37-.82.83-.82h29.34c.46 0 .83.36.83.82v2.18c0 .45-.37.82-.83.82H20.83a.82.82 0 0 1-.83-.82zm31-10.91V27c0 .45-.58.82-1.3.82H21.3c-.72 0-1.3-.37-1.3-.82v-2.18c0-.45.58-.82 1.3-.82h28.4c.72 0 1.3.37 1.3.82z"/></defs><g><g transform="translate(-20 -24)"><use fill="#364041" xlink:href="#rg4ya"/></g></g></svg>