<svg xmlns="http://www.w3.org/2000/svg" xmlns:xlink="http://www.w3.org/1999/xlink" width="18" height="15" viewBox="0 0 18 15"><defs><path id="ylmwa" d="M763.03 210.2a2.38 2.38 0 0 0-2.39 2.35c0 1.3 1.07 2.36 2.4 2.36 1.31 0 2.38-1.06 2.38-2.36 0-1.3-1.07-2.36-2.39-2.36zm0 6.28a3.96 3.96 0 0 1-3.98-3.93 3.96 3.96 0 0 1 3.98-3.93c2.2 0 3.99 1.76 3.99 3.93a3.96 3.96 0 0 1-3.99 3.93zm3.51-11.47l.48 1.25h2.92c.88 0 1.6.7 1.6 1.57v9.44c0 .87-.72 1.57-1.6 1.57h-13.82c-.88 0-1.59-.7-1.59-1.57v-9.44c0-.87.71-1.57 1.6-1.57h2.92l.4-1.08a1.6 1.6 0 0 1 1.5-1.02h4.35c.55 0 1.05.34 1.24.85zm-1.42.72h-4.17l-.8 2.1h-4.03v9.44h13.82v-9.44h-4.03z"/></defs><g><g transform="translate(-754 -204)"><use fill="#fff" xlink:href="#ylmwa"/></g></g></svg>