<svg xmlns="http://www.w3.org/2000/svg" xmlns:xlink="http://www.w3.org/1999/xlink" width="11" height="13" viewBox="0 0 11 13"><defs><path id="bmk4a" d="M767.75 559.54a2.92 2.92 0 0 1-.03-3.34c.19-.27.49-.57.9-.92a4.04 4.04 0 0 0-.82-.78c-.5-.33-1.06-.5-1.68-.5-.38 0-.83.09-1.37.26-.51.18-.9.27-1.13.27-.18 0-.54-.08-1.09-.23a5.34 5.34 0 0 0-1.4-.24c-.9 0-1.65.37-2.24 1.12-.6.76-.89 1.72-.89 2.9 0 1.26.39 2.56 1.16 3.9.79 1.35 1.58 2.02 2.38 2.02.27 0 .61-.09 1.04-.26.43-.17.8-.26 1.12-.26.34 0 .74.08 1.2.25.47.16.84.25 1.1.25.67 0 1.35-.51 2.03-1.53.44-.64.76-1.29.97-1.94a2.4 2.4 0 0 1-1.25-.97z"/><path id="bmk4b" d="M764.9 553.34c.38-.31.66-.65.84-1.02a2.4 2.4 0 0 0 .25-1.16.6.6 0 0 1-.02-.08.59.59 0 0 0-.02-.08c-1.06.2-1.8.57-2.25 1.1a2.98 2.98 0 0 0-.7 1.9 6 6 0 0 0 .93-.13c.33-.08.65-.26.97-.53z"/></defs><g><g transform="translate(-758 -551)"><g><use xlink:href="#bmk4a"/></g><g><use xlink:href="#bmk4b"/></g></g></g></svg>