<svg xmlns="http://www.w3.org/2000/svg" xmlns:xlink="http://www.w3.org/1999/xlink" width="15" height="15"
     viewBox="0 0 15 15">
    <defs>
        <path id="gbjma"
              d="M1106.6 205.81l-2.4-2.41 1-1.02 2.42 2.41zm-10.21 5.75l1.35.7.7 1.35-3 .95zm3.03 1.43l-.74-1.43a.57.57 0 0 0-.24-.24l-1.43-.74 6.37-6.37 2.4 2.42zm9.41-8.61l-3.2-3.21a.57.57 0 0 0-.82 0l-9.16 9.16-.03.05-.08.1c0 .01 0 .03-.02.05l-.02.04-1.48 4.7c-.13.4.3.84.71.7l4.7-1.47.04-.03.06-.01.09-.08.05-.03 9.16-9.16a.57.57 0 0 0 0-.81z"/>
    </defs>
    <g>
        <g transform="translate(-1094 -201)">
            <use fill="#236aea" xlink:href="#gbjma"/>
        </g>
    </g>
</svg>
